<svg width="64" height="64" viewBox="0 0 64 64" fill="none" xmlns="http://www.w3.org/2000/svg">
<path d="M24.9073 37.1271C25.4419 37.1271 25.8886 36.9576 26.2475 36.6187C26.6089 36.2773 26.7896 35.8542 26.7896 35.3493V25.3013C26.7896 24.7964 26.6089 24.3733 26.2475 24.032C25.8861 23.6907 25.4381 23.5212 24.9035 23.5236C24.3689 23.5259 23.9222 23.6954 23.5633 24.032C23.2044 24.3686 23.0249 24.7917 23.0249 25.3013V35.3493C23.0249 35.8542 23.2044 36.2773 23.5633 36.6187C23.9247 36.9576 24.3727 37.1271 24.9073 37.1271ZM8.76047 33.1627C6.16282 31.9372 4.05459 30.1831 2.43576 27.9004C0.811921 25.6201 0 23.1052 0 20.3556C0 16.6862 1.36282 13.5621 4.08847 10.9831C6.8091 8.40178 10.1133 7.11111 14.0009 7.11111C14.7413 7.11111 15.498 7.17037 16.2711 7.28889C17.0441 7.40741 17.8008 7.55556 18.5412 7.73333L19.1925 7.872L19.5539 7.32089C20.9293 5.16622 22.6911 3.40741 24.8395 2.04444C26.9879 0.681482 29.3747 0 32 0C34.6253 0 37.0121 0.681482 39.1605 2.04444C41.3089 3.40741 43.0946 5.16622 44.5176 7.32089L44.8791 7.86844L45.4588 7.73333C46.1766 7.55556 46.8944 7.40741 47.6122 7.28889C48.33 7.17037 49.0767 7.11111 49.8522 7.11111C53.7876 7.11111 57.1294 8.40059 59.8777 10.9796C62.6259 13.5585 64 16.7064 64 20.4231C64 23.1727 63.2006 25.677 61.6019 27.936C60.0057 30.195 57.8849 31.9324 55.2395 33.1484V50.5991H8.76047V33.1627ZM39.1718 37.1271C39.7038 37.1271 40.1506 36.9576 40.512 36.6187C40.8734 36.2797 41.0529 35.8566 41.0504 35.3493V25.3013C41.0504 24.7964 40.8696 24.3733 40.5082 24.032C40.1468 23.693 39.6988 23.5236 39.1642 23.5236C38.6296 23.5236 38.1829 23.693 37.824 24.032C37.4651 24.371 37.2856 24.7941 37.2856 25.3013V35.3493C37.2856 35.8542 37.4664 36.2773 37.8278 36.6187C38.1892 36.96 38.6372 37.1295 39.1718 37.1271ZM12.5252 47.0436H51.4748V30.8587L54.5318 29.4507C56.3062 28.6353 57.7117 27.4287 58.7482 25.8311C59.7848 24.2335 60.3043 22.477 60.3068 20.5618C60.3068 17.7908 59.2678 15.4489 57.1896 13.536C55.1115 11.6231 52.618 10.6667 49.7092 10.6667C49.0667 10.6667 48.4518 10.7141 47.8645 10.8089C47.2747 10.9037 46.6899 11.0412 46.1101 11.2213L43.136 12.032L41.3026 9.12C40.2786 7.48444 38.9647 6.14755 37.3609 5.10933C35.7572 4.07111 33.9827 3.55319 32.0376 3.55556C30.0925 3.55793 28.3169 4.07704 26.7106 5.11289C25.1043 6.14874 23.7904 7.48563 22.7689 9.12356L20.9355 12.0356L17.8673 11.2178C17.29 11.0566 16.7027 10.9239 16.1054 10.8196C15.5081 10.7153 14.8957 10.6643 14.2682 10.6667C11.3569 10.6667 8.87843 11.6184 6.83294 13.5218C4.78745 15.4252 3.76471 17.7541 3.76471 20.5084C3.76471 22.4119 4.28047 24.1576 5.312 25.7458C6.34353 27.3339 7.75404 28.5689 9.54353 29.4507L12.5252 30.8587V47.0436ZM8.76047 50.5991H12.5252V58.2542C12.5252 58.8942 12.7423 59.4193 13.1765 59.8293C13.6107 60.2394 14.1653 60.4444 14.8405 60.4444H49.1595C49.8347 60.4444 50.3893 60.2394 50.8235 59.8293C51.2577 59.4193 51.4748 58.8942 51.4748 58.2542V50.5991H55.2395V58.2542C55.2395 59.8353 54.6447 61.1876 53.4551 62.3111C52.2654 63.4347 50.8336 63.9976 49.1595 64H14.8405C13.1689 64 11.7384 63.437 10.5487 62.3111C9.35906 61.1852 8.76298 59.8341 8.76047 58.2578V50.5991Z" fill="#C4A484"/>
</svg>
