<svg width="64" height="64" viewBox="0 0 64 64" fill="none" xmlns="http://www.w3.org/2000/svg">
<path d="M10.6373 8.96794C10.8063 7.95042 11.3316 7.02614 12.1193 6.36029C12.9071 5.69444 13.9059 5.33041 14.9373 5.33327C16.0093 5.33327 16.9907 5.71727 17.7533 6.35327C18.5806 5.69265 19.608 5.33296 20.6667 5.33327C21.768 5.33327 22.7813 5.7146 23.58 6.35327C24.3694 5.69243 25.3666 5.33123 26.396 5.33327C27.4275 5.33041 28.4263 5.69444 29.214 6.36029C30.0018 7.02614 30.5271 7.95042 30.696 8.96794C31.1867 11.9706 32 17.5039 32 21.3333C32.0014 23.1343 31.573 24.9096 30.7504 26.5117C29.9279 28.1139 28.7349 29.4967 27.2707 30.5453C26.4173 31.1586 26 31.8986 26 32.5319C26 32.5826 26.0013 32.6173 26.004 32.6573C26.1213 34.1186 27.3333 49.2906 27.3333 51.9999C27.3333 53.768 26.631 55.4637 25.3807 56.714C24.1305 57.9642 22.4348 58.6666 20.6667 58.6666C18.8986 58.6666 17.2029 57.9642 15.9526 56.714C14.7024 55.4637 14 53.768 14 51.9999C14 49.2906 15.212 34.1186 15.328 32.6573C15.3318 32.6156 15.3335 32.5738 15.3333 32.5319C15.3333 31.8986 14.9173 31.1586 14.0627 30.5453C12.5984 29.4967 11.4055 28.1139 10.5829 26.5117C9.76039 24.9096 9.332 23.1343 9.33335 21.3333C9.33335 17.5039 10.1467 11.9706 10.6373 8.96794ZM25.3333 22.3333C25.3333 22.7753 25.1578 23.1992 24.8452 23.5118C24.5326 23.8243 24.1087 23.9999 23.6667 23.9999C23.2247 23.9999 22.8007 23.8243 22.4882 23.5118C22.1756 23.1992 22 22.7753 22 22.3333V9.99994C22 9.64631 21.8595 9.30717 21.6095 9.05713C21.3594 8.80708 21.0203 8.6666 20.6667 8.6666C20.3131 8.6666 19.9739 8.80708 19.7239 9.05713C19.4738 9.30717 19.3333 9.64631 19.3333 9.99994V22.3333C19.3333 22.7753 19.1578 23.1992 18.8452 23.5118C18.5326 23.8243 18.1087 23.9999 17.6667 23.9999C17.2247 23.9999 16.8007 23.8243 16.4882 23.5118C16.1756 23.1992 16 22.7753 16 22.3333V9.72927C16 9.44743 15.8881 9.17714 15.6888 8.97785C15.4895 8.77856 15.2192 8.6666 14.9373 8.6666C14.42 8.6666 14.004 9.0306 13.9267 9.5066C13.4333 12.5293 12.6667 17.8119 12.6667 21.3333C12.6654 22.605 12.9678 23.8586 13.5487 24.9899C14.1297 26.1212 14.9724 27.0974 16.0067 27.8373C17.3667 28.8133 18.6667 30.4413 18.6667 32.5306C18.6667 32.6613 18.6627 32.7839 18.652 32.9239C18.524 34.5066 17.3333 49.4666 17.3333 51.9999C17.3333 52.884 17.6845 53.7318 18.3097 54.357C18.9348 54.9821 19.7826 55.3333 20.6667 55.3333C21.5507 55.3333 22.3986 54.9821 23.0237 54.357C23.6488 53.7318 24 52.884 24 51.9999C24 49.4666 22.8093 34.5066 22.6827 32.9239C22.6725 32.7935 22.6672 32.6628 22.6667 32.5319C22.6667 30.4413 23.9667 28.8119 25.3267 27.8373C26.361 27.0974 27.2037 26.1212 27.7846 24.9899C28.3656 23.8586 28.668 22.605 28.6667 21.3333C28.6667 17.8119 27.9 12.5293 27.4067 9.5066C27.3655 9.26933 27.2412 9.05448 27.056 8.90055C26.8708 8.74663 26.6368 8.66369 26.396 8.6666C26.1142 8.6666 25.8439 8.77856 25.6446 8.97785C25.4453 9.17714 25.3333 9.44743 25.3333 9.72927V22.3333ZM48.6667 8.70927V30.3333C48.6667 31.1199 48.9173 34.7733 49.1933 38.7799L49.212 39.0519C49.5853 44.4733 50 50.5213 50 51.9999C50 52.884 49.6488 53.7318 49.0237 54.357C48.3986 54.9821 47.5507 55.3333 46.6667 55.3333C45.7826 55.3333 44.9348 54.9821 44.3097 54.357C43.6845 53.7318 43.3333 52.884 43.3333 51.9999C43.3333 50.6906 43.66 45.3519 43.996 40.2399C44.1931 37.2484 44.3962 34.2573 44.6053 31.2666L44.6627 30.4506C44.6788 30.2224 44.6477 29.9933 44.5715 29.7777C44.4952 29.562 44.3754 29.3643 44.2194 29.1969C44.0634 29.0296 43.8747 28.8961 43.6649 28.8049C43.4551 28.7137 43.2288 28.6666 43 28.6666H39C38.7348 28.6666 38.4804 28.5612 38.2929 28.3737C38.1054 28.1862 38 27.9318 38 27.6666V20.3333C37.9999 17.4121 39.0957 14.5973 41.0707 12.445C43.0457 10.2927 45.7563 8.95965 48.6667 8.70927ZM41.2133 31.9999L41.1293 33.2159C41.004 35.0319 40.836 37.4826 40.6707 40.0213C40.34 45.0533 40 50.5479 40 51.9999C40 53.768 40.7024 55.4637 41.9526 56.714C43.2029 57.9642 44.8986 58.6666 46.6667 58.6666C48.4348 58.6666 50.1305 57.9642 51.3807 56.714C52.631 55.4637 53.3333 53.768 53.3333 51.9999C53.3333 50.3879 52.9133 44.2746 52.5493 38.9973L52.5373 38.8239C52.2467 34.5946 52 30.9866 52 30.3333V6.99994C52 6.07994 51.2533 5.33327 50.3333 5.33327H49.6667C41.3827 5.33327 34.6667 12.0493 34.6667 20.3333V27.6666C34.6667 28.8159 35.1232 29.9181 35.9359 30.7307C36.7485 31.5434 37.8507 31.9999 39 31.9999H41.2133Z" fill="#C4A484"/>
</svg>
