<svg width="48" height="48" viewBox="0 0 48 48" fill="none" xmlns="http://www.w3.org/2000/svg">
<path d="M36 16.5C36 18.2188 35.6953 19.8438 35.0859 21.375C34.4766 22.9062 33.6328 24.2734 32.5547 25.4766C31.4766 26.6797 30.2109 27.6719 28.7578 28.4531C27.3047 29.2344 25.7188 29.7266 24 29.9297V45H28.5C28.9062 45 29.2578 45.1484 29.5547 45.4453C29.8516 45.7422 30 46.0938 30 46.5C30 46.9062 29.8516 47.2578 29.5547 47.5547C29.2578 47.8516 28.9062 48 28.5 48H16.5C16.0938 48 15.7422 47.8516 15.4453 47.5547C15.1484 47.2578 15 46.9062 15 46.5C15 46.0938 15.1484 45.7422 15.4453 45.4453C15.7422 45.1484 16.0938 45 16.5 45H21V29.9297C19.2969 29.7266 17.7188 29.2344 16.2656 28.4531C14.8125 27.6719 13.5391 26.6875 12.4453 25.5C11.3516 24.3125 10.5078 22.9453 9.91406 21.3984C9.32031 19.8516 9.01562 18.2188 9 16.5C9 15.125 9.10938 13.7812 9.32812 12.4688C9.54688 11.1562 9.88281 9.83594 10.3359 8.50781L13.1719 0H31.8281L34.6641 8.50781C35.1016 9.82031 35.4297 11.1328 35.6484 12.4453C35.8672 13.7578 35.9844 15.1094 36 16.5ZM12 16.5C12 17.9531 12.2734 19.3125 12.8203 20.5781C13.3672 21.8438 14.1172 22.9531 15.0703 23.9062C16.0234 24.8594 17.1328 25.6094 18.3984 26.1562C19.6641 26.7031 21.0312 26.9844 22.5 27C23.9531 27 25.3125 26.7266 26.5781 26.1797C27.8438 25.6328 28.9531 24.8828 29.9062 23.9297C30.8594 22.9766 31.6094 21.8672 32.1562 20.6016C32.7031 19.3359 32.9844 17.9688 33 16.5C33 15.3125 32.8984 14.1484 32.6953 13.0078C32.4922 11.8672 32.2266 10.7422 31.8984 9.63281C31.5703 8.52344 31.2109 7.42188 30.8203 6.32812C30.4297 5.23438 30.0469 4.125 29.6719 3H15.3281L13.1719 9.49219C12.7969 10.6328 12.5078 11.7812 12.3047 12.9375C12.1016 14.0938 12 15.2812 12 16.5Z" fill="#8E3B46"/>
</svg>
