<svg width="137" height="57" viewBox="0 0 137 57" fill="none" xmlns="http://www.w3.org/2000/svg">
<path d="M36 16.5C36 18.2188 35.6953 19.8438 35.0859 21.375C34.4766 22.9062 33.6328 24.2734 32.5547 25.4766C31.4766 26.6797 30.2109 27.6719 28.7578 28.4531C27.3047 29.2344 25.7188 29.7266 24 29.9297V45H28.5C28.9062 45 29.2578 45.1484 29.5547 45.4453C29.8516 45.7422 30 46.0938 30 46.5C30 46.9062 29.8516 47.2578 29.5547 47.5547C29.2578 47.8516 28.9062 48 28.5 48H16.5C16.0938 48 15.7422 47.8516 15.4453 47.5547C15.1484 47.2578 15 46.9062 15 46.5C15 46.0938 15.1484 45.7422 15.4453 45.4453C15.7422 45.1484 16.0938 45 16.5 45H21V29.9297C19.2969 29.7266 17.7188 29.2344 16.2656 28.4531C14.8125 27.6719 13.5391 26.6875 12.4453 25.5C11.3516 24.3125 10.5078 22.9453 9.91406 21.3984C9.32031 19.8516 9.01562 18.2188 9 16.5C9 15.125 9.10938 13.7812 9.32812 12.4688C9.54688 11.1562 9.88281 9.83594 10.3359 8.50781L13.1719 0H31.8281L34.6641 8.50781C35.1016 9.82031 35.4297 11.1328 35.6484 12.4453C35.8672 13.7578 35.9844 15.1094 36 16.5ZM12 16.5C12 17.9531 12.2734 19.3125 12.8203 20.5781C13.3672 21.8438 14.1172 22.9531 15.0703 23.9062C16.0234 24.8594 17.1328 25.6094 18.3984 26.1562C19.6641 26.7031 21.0312 26.9844 22.5 27C23.9531 27 25.3125 26.7266 26.5781 26.1797C27.8438 25.6328 28.9531 24.8828 29.9062 23.9297C30.8594 22.9766 31.6094 21.8672 32.1562 20.6016C32.7031 19.3359 32.9844 17.9688 33 16.5C33 15.3125 32.8984 14.1484 32.6953 13.0078C32.4922 11.8672 32.2266 10.7422 31.8984 9.63281C31.5703 8.52344 31.2109 7.42188 30.8203 6.32812C30.4297 5.23438 30.0469 4.125 29.6719 3H15.3281L13.1719 9.49219C12.7969 10.6328 12.5078 11.7812 12.3047 12.9375C12.1016 14.0938 12 15.2812 12 16.5Z" fill="#8E3B46"/>
<path d="M45.0887 30.696C46.0327 30.696 46.7607 30.8 47.2727 31.008C47.7847 31.2 48.2247 31.408 48.5927 31.632C48.7847 31.744 48.9367 31.832 49.0487 31.896C49.1767 31.944 49.2967 31.968 49.4087 31.968C49.5687 31.968 49.6807 31.88 49.7447 31.704C49.8247 31.528 49.8887 31.264 49.9367 30.912H50.4887C50.4727 31.216 50.4487 31.584 50.4167 32.016C50.4007 32.432 50.3847 32.984 50.3687 33.672C50.3687 34.36 50.3687 35.264 50.3687 36.384H49.8167C49.7527 35.552 49.5607 34.744 49.2407 33.96C48.9207 33.176 48.4647 32.536 47.8727 32.04C47.2967 31.528 46.5847 31.272 45.7367 31.272C44.9687 31.272 44.3367 31.488 43.8407 31.92C43.3447 32.352 43.0967 32.952 43.0967 33.72C43.0967 34.36 43.2567 34.912 43.5767 35.376C43.8967 35.824 44.3607 36.264 44.9687 36.696C45.5927 37.128 46.3447 37.648 47.2247 38.256C47.9927 38.752 48.6807 39.248 49.2887 39.744C49.8967 40.24 50.3847 40.8 50.7527 41.424C51.1207 42.048 51.3047 42.792 51.3047 43.656C51.3047 44.712 51.0247 45.584 50.4647 46.272C49.9207 46.96 49.2007 47.48 48.3047 47.832C47.4087 48.168 46.4247 48.336 45.3527 48.336C44.3607 48.336 43.5687 48.24 42.9767 48.048C42.3847 47.856 41.8887 47.656 41.4887 47.448C41.1367 47.224 40.8647 47.112 40.6727 47.112C40.5127 47.112 40.3927 47.2 40.3127 47.376C40.2487 47.552 40.1927 47.816 40.1447 48.168H39.5927C39.6247 47.784 39.6407 47.336 39.6407 46.824C39.6567 46.312 39.6647 45.648 39.6647 44.832C39.6807 44 39.6887 42.952 39.6887 41.688H40.2407C40.3047 42.744 40.4807 43.736 40.7687 44.664C41.0727 45.576 41.5287 46.312 42.1367 46.872C42.7607 47.432 43.5847 47.712 44.6087 47.712C45.1687 47.712 45.6647 47.616 46.0967 47.424C46.5447 47.216 46.9047 46.912 47.1767 46.512C47.4487 46.112 47.5847 45.616 47.5847 45.024C47.5847 44.352 47.4247 43.768 47.1047 43.272C46.8007 42.776 46.3767 42.312 45.8327 41.88C45.3047 41.448 44.6887 41.008 43.9847 40.56C43.2327 40.064 42.5287 39.568 41.8727 39.072C41.2167 38.576 40.6887 38.008 40.2887 37.368C39.9047 36.728 39.7127 35.968 39.7127 35.088C39.7127 34.08 39.9607 33.256 40.4567 32.616C40.9687 31.96 41.6327 31.48 42.4487 31.176C43.2807 30.856 44.1607 30.696 45.0887 30.696ZM61.2956 30.96L67.1276 45.984C67.3516 46.56 67.5996 46.96 67.8716 47.184C68.1596 47.392 68.4156 47.504 68.6396 47.52V48C68.1596 47.968 67.5916 47.952 66.9356 47.952C66.2956 47.936 65.6476 47.928 64.9916 47.928C64.2556 47.928 63.5596 47.936 62.9036 47.952C62.2476 47.952 61.7276 47.968 61.3436 48V47.52C62.1596 47.488 62.6716 47.352 62.8796 47.112C63.1036 46.856 63.0556 46.32 62.7356 45.504L58.6556 34.344L59.0876 33.72L55.4396 43.224C55.0876 44.104 54.8716 44.824 54.7916 45.384C54.7276 45.944 54.7676 46.376 54.9116 46.68C55.0716 46.984 55.3196 47.2 55.6556 47.328C56.0076 47.44 56.4236 47.504 56.9036 47.52V48C56.3756 47.968 55.8716 47.952 55.3916 47.952C54.9116 47.936 54.4236 47.928 53.9276 47.928C53.5756 47.928 53.2396 47.936 52.9196 47.952C52.6156 47.952 52.3436 47.968 52.1036 48V47.52C52.4396 47.456 52.7836 47.24 53.1356 46.872C53.4876 46.504 53.8316 45.88 54.1676 45L59.6396 30.96C59.8956 30.976 60.1676 30.984 60.4556 30.984C60.7596 30.984 61.0396 30.976 61.2956 30.96ZM62.9756 41.088V41.568H55.8236L56.0636 41.088H62.9756ZM83.4422 31.008V31.488C83.0902 31.616 82.7142 31.896 82.3142 32.328C81.9302 32.76 81.5702 33.432 81.2342 34.344L76.1702 48.048C76.0422 48.032 75.9062 48.024 75.7622 48.024C75.6182 48.024 75.4742 48.024 75.3302 48.024C75.2022 48.024 75.0662 48.024 74.9222 48.024C74.7782 48.024 74.6422 48.032 74.5142 48.048L68.3942 33.024C68.1702 32.448 67.9222 32.056 67.6502 31.848C67.3782 31.624 67.1222 31.504 66.8822 31.488V31.008C67.3622 31.024 67.9222 31.04 68.5622 31.056C69.2182 31.072 69.8742 31.08 70.5302 31.08C71.2662 31.08 71.9542 31.072 72.5942 31.056C73.2502 31.04 73.7782 31.024 74.1782 31.008V31.488C73.6662 31.504 73.2662 31.568 72.9782 31.68C72.6902 31.776 72.5302 31.968 72.4982 32.256C72.4662 32.528 72.5622 32.944 72.7862 33.504L77.1542 44.616L76.6502 45.216L79.9622 36.288C80.3942 35.088 80.6182 34.144 80.6342 33.456C80.6502 32.768 80.4822 32.272 80.1302 31.968C79.7782 31.664 79.2742 31.504 78.6182 31.488V31.008C79.1622 31.024 79.6742 31.04 80.1542 31.056C80.6342 31.072 81.1222 31.08 81.6182 31.08C81.9702 31.08 82.2982 31.072 82.6022 31.056C82.9222 31.04 83.2022 31.024 83.4422 31.008ZM92.6235 30.672C94.3195 30.672 95.7995 31.016 97.0635 31.704C98.3435 32.392 99.3355 33.384 100.039 34.68C100.743 35.96 101.095 37.52 101.095 39.36C101.095 41.152 100.735 42.72 100.015 44.064C99.2955 45.408 98.2875 46.456 96.9915 47.208C95.7115 47.96 94.2475 48.336 92.5995 48.336C90.9035 48.336 89.4155 47.992 88.1355 47.304C86.8715 46.616 85.8875 45.624 85.1835 44.328C84.4795 43.032 84.1275 41.472 84.1275 39.648C84.1275 37.856 84.4875 36.288 85.2075 34.944C85.9435 33.6 86.9435 32.552 88.2075 31.8C89.4875 31.048 90.9595 30.672 92.6235 30.672ZM92.5275 31.104C91.6315 31.104 90.8475 31.464 90.1755 32.184C89.5195 32.904 89.0075 33.896 88.6395 35.16C88.2875 36.424 88.1115 37.888 88.1115 39.552C88.1115 41.248 88.3115 42.728 88.7115 43.992C89.1275 45.24 89.6795 46.208 90.3675 46.896C91.0715 47.568 91.8475 47.904 92.6955 47.904C93.5915 47.904 94.3675 47.544 95.0235 46.824C95.6955 46.104 96.2075 45.112 96.5595 43.848C96.9275 42.568 97.1115 41.104 97.1115 39.456C97.1115 37.744 96.9035 36.264 96.4875 35.016C96.0875 33.768 95.5355 32.808 94.8315 32.136C94.1435 31.448 93.3755 31.104 92.5275 31.104ZM103.235 31.008C103.635 31.024 104.171 31.04 104.843 31.056C105.531 31.072 106.211 31.08 106.883 31.08C107.651 31.08 108.395 31.072 109.115 31.056C109.835 31.04 110.347 31.032 110.651 31.032C112.139 31.032 113.371 31.2 114.347 31.536C115.339 31.856 116.075 32.328 116.555 32.952C117.051 33.576 117.299 34.328 117.299 35.208C117.299 35.752 117.187 36.304 116.963 36.864C116.739 37.408 116.355 37.92 115.811 38.4C115.283 38.864 114.555 39.24 113.627 39.528C112.699 39.8 111.531 39.936 110.123 39.936H107.819V39.456H109.883C110.827 39.456 111.539 39.28 112.019 38.928C112.515 38.56 112.851 38.08 113.027 37.488C113.219 36.88 113.315 36.208 113.315 35.472C113.315 34.208 113.091 33.232 112.643 32.544C112.195 31.84 111.427 31.488 110.339 31.488C109.715 31.488 109.307 31.624 109.115 31.896C108.939 32.168 108.851 32.72 108.851 33.552V45.456C108.851 46.032 108.891 46.464 108.971 46.752C109.067 47.04 109.243 47.232 109.499 47.328C109.755 47.424 110.139 47.488 110.651 47.52V48C110.219 47.968 109.675 47.952 109.019 47.952C108.363 47.936 107.699 47.928 107.027 47.928C106.259 47.928 105.531 47.936 104.843 47.952C104.171 47.952 103.635 47.968 103.235 48V47.52C103.747 47.488 104.131 47.424 104.387 47.328C104.643 47.232 104.811 47.04 104.891 46.752C104.987 46.464 105.035 46.032 105.035 45.456V33.552C105.035 32.96 104.987 32.528 104.891 32.256C104.811 31.968 104.635 31.776 104.363 31.68C104.107 31.568 103.731 31.504 103.235 31.488V31.008ZM107.771 39.528C108.459 39.544 109.051 39.576 109.547 39.624C110.059 39.672 110.507 39.72 110.891 39.768C111.275 39.8 111.619 39.824 111.923 39.84C113.379 39.968 114.451 40.28 115.139 40.776C115.843 41.272 116.299 42.016 116.507 43.008L117.059 45.48C117.203 46.12 117.355 46.568 117.515 46.824C117.675 47.08 117.907 47.208 118.211 47.208C118.419 47.192 118.587 47.144 118.715 47.064C118.859 46.968 119.011 46.832 119.171 46.656L119.507 46.944C119.075 47.44 118.611 47.792 118.115 48C117.619 48.224 117.019 48.336 116.315 48.336C115.451 48.336 114.739 48.152 114.179 47.784C113.619 47.416 113.251 46.736 113.075 45.744L112.643 43.344C112.531 42.672 112.395 42.088 112.235 41.592C112.075 41.08 111.851 40.68 111.563 40.392C111.291 40.088 110.907 39.936 110.411 39.936H107.819L107.771 39.528ZM133.172 31.008C133.108 31.712 133.06 32.392 133.028 33.048C133.012 33.704 133.004 34.208 133.004 34.56C133.004 34.88 133.012 35.184 133.028 35.472C133.044 35.76 133.06 36 133.076 36.192H132.524C132.364 35.024 132.116 34.104 131.78 33.432C131.444 32.744 131.004 32.264 130.46 31.992C129.932 31.704 129.308 31.56 128.588 31.56H127.604C127.14 31.56 126.788 31.6 126.548 31.68C126.308 31.76 126.148 31.92 126.068 32.16C125.988 32.4 125.948 32.768 125.948 33.264V45.744C125.948 46.24 125.988 46.608 126.068 46.848C126.148 47.088 126.308 47.248 126.548 47.328C126.788 47.408 127.14 47.448 127.604 47.448H128.78C129.5 47.448 130.132 47.296 130.676 46.992C131.236 46.672 131.708 46.136 132.092 45.384C132.492 44.632 132.796 43.616 133.004 42.336H133.556C133.508 42.848 133.484 43.52 133.484 44.352C133.484 44.72 133.492 45.24 133.508 45.912C133.524 46.584 133.572 47.28 133.652 48C132.836 47.968 131.916 47.952 130.892 47.952C129.868 47.936 128.956 47.928 128.156 47.928C127.756 47.928 127.244 47.928 126.62 47.928C125.996 47.928 125.324 47.936 124.604 47.952C123.884 47.952 123.156 47.96 122.42 47.976C121.684 47.976 120.988 47.984 120.332 48V47.52C120.844 47.488 121.228 47.424 121.484 47.328C121.74 47.232 121.908 47.04 121.988 46.752C122.084 46.464 122.132 46.032 122.132 45.456V33.552C122.132 32.96 122.084 32.528 121.988 32.256C121.908 31.968 121.732 31.776 121.46 31.68C121.204 31.568 120.828 31.504 120.332 31.488V31.008C120.988 31.024 121.684 31.04 122.42 31.056C123.156 31.056 123.884 31.064 124.604 31.08C125.324 31.08 125.996 31.08 126.62 31.08C127.244 31.08 127.756 31.08 128.156 31.08C128.892 31.08 129.724 31.08 130.652 31.08C131.596 31.064 132.436 31.04 133.172 31.008ZM129.428 39.216C129.428 39.216 129.428 39.296 129.428 39.456C129.428 39.616 129.428 39.696 129.428 39.696H125.228C125.228 39.696 125.228 39.616 125.228 39.456C125.228 39.296 125.228 39.216 125.228 39.216H129.428ZM130.124 36.048C130.06 36.96 130.028 37.656 130.028 38.136C130.044 38.616 130.052 39.056 130.052 39.456C130.052 39.856 130.06 40.296 130.076 40.776C130.092 41.256 130.132 41.952 130.196 42.864H129.644C129.564 42.304 129.412 41.784 129.188 41.304C128.98 40.824 128.676 40.44 128.276 40.152C127.876 39.848 127.356 39.696 126.716 39.696V39.216C127.196 39.216 127.604 39.12 127.94 38.928C128.276 38.72 128.548 38.456 128.756 38.136C128.98 37.8 129.156 37.448 129.284 37.08C129.412 36.712 129.508 36.368 129.572 36.048H130.124Z" fill="#3B3735"/>
</svg>
