<svg width="20" height="20" viewBox="0 0 20 20" fill="none" xmlns="http://www.w3.org/2000/svg">
<path d="M5.375 1.3125C5.875 1.3125 7.875 5.8125 7.875 6.3125C7.875 7.3125 6.375 8.3125 5.875 9.3125C5.375 10.3125 6.375 11.3125 7.375 12.3125C7.765 12.7025 9.375 14.3125 10.375 13.8125C11.375 13.3125 12.375 11.8125 13.375 11.8125C13.875 11.8125 18.375 13.8125 18.375 14.3125C18.375 16.3125 16.875 17.8125 15.375 18.3125C13.875 18.8125 12.875 18.8125 10.875 18.3125C8.875 17.8125 7.375 17.3125 4.875 14.8125C2.375 12.3125 1.875 10.8125 1.375 8.8125C0.875 6.8125 0.875 5.8125 1.375 4.3125C1.875 2.8125 3.375 1.3125 5.375 1.3125Z" stroke="#3B3735" stroke-width="2" stroke-linecap="round" stroke-linejoin="round"/>
</svg>
