<svg width="45" height="54" viewBox="0 0 45 54" fill="none" xmlns="http://www.w3.org/2000/svg">
<path d="M1.63735 3.96794C1.8063 2.95042 2.33158 2.02614 3.11932 1.36029C3.90705 0.694438 4.9059 0.330411 5.93735 0.333269C7.00935 0.333269 7.99068 0.717268 8.75335 1.35327C9.58064 0.692647 10.608 0.332961 11.6667 0.333269C12.768 0.333269 13.7813 0.714602 14.58 1.35327C15.3694 0.692429 16.3666 0.331234 17.396 0.333269C18.4275 0.330411 19.4263 0.694438 20.214 1.36029C21.0018 2.02614 21.5271 2.95042 21.696 3.96794C22.1867 6.9706 23 12.5039 23 16.3333C23.0014 18.1343 22.573 19.9096 21.7504 21.5117C20.9279 23.1139 19.7349 24.4967 18.2707 25.5453C17.4173 26.1586 17 26.8986 17 27.5319C17 27.5826 17.0013 27.6173 17.004 27.6573C17.1213 29.1186 18.3333 44.2906 18.3333 46.9999C18.3333 48.768 17.631 50.4637 16.3807 51.714C15.1305 52.9642 13.4348 53.6666 11.6667 53.6666C9.89857 53.6666 8.20288 52.9642 6.95263 51.714C5.70239 50.4637 5.00001 48.768 5.00001 46.9999C5.00001 44.2906 6.21201 29.1186 6.32801 27.6573C6.33176 27.6156 6.33354 27.5738 6.33335 27.5319C6.33335 26.8986 5.91735 26.1586 5.06268 25.5453C3.59842 24.4967 2.40547 23.1139 1.58293 21.5117C0.760394 19.9096 0.332004 18.1343 0.333347 16.3333C0.333347 12.5039 1.14668 6.9706 1.63735 3.96794ZM16.3333 17.3333C16.3333 17.7753 16.1578 18.1992 15.8452 18.5118C15.5326 18.8243 15.1087 18.9999 14.6667 18.9999C14.2247 18.9999 13.8007 18.8243 13.4882 18.5118C13.1756 18.1992 13 17.7753 13 17.3333V4.99994C13 4.64631 12.8595 4.30718 12.6095 4.05713C12.3594 3.80708 12.0203 3.6666 11.6667 3.6666C11.3131 3.6666 10.9739 3.80708 10.7239 4.05713C10.4738 4.30718 10.3333 4.64631 10.3333 4.99994V17.3333C10.3333 17.7753 10.1578 18.1992 9.84519 18.5118C9.53263 18.8243 9.10871 18.9999 8.66668 18.9999C8.22465 18.9999 7.80073 18.8243 7.48817 18.5118C7.17561 18.1992 7.00001 17.7753 7.00001 17.3333V4.72927C7.00001 4.44743 6.88805 4.17714 6.68877 3.97785C6.48948 3.77856 6.21918 3.6666 5.93735 3.6666C5.42001 3.6666 5.00401 4.0306 4.92668 4.5066C4.43335 7.52927 3.66668 12.8119 3.66668 16.3333C3.66537 17.605 3.96777 18.8586 4.54872 19.9899C5.12966 21.1212 5.97235 22.0974 7.00668 22.8373C8.36668 23.8133 9.66668 25.4413 9.66668 27.5306C9.66668 27.6613 9.66268 27.7839 9.65201 27.9239C9.52401 29.5066 8.33335 44.4666 8.33335 46.9999C8.33335 47.884 8.68454 48.7318 9.30966 49.357C9.93478 49.9821 10.7826 50.3333 11.6667 50.3333C12.5507 50.3333 13.3986 49.9821 14.0237 49.357C14.6488 48.7318 15 47.884 15 46.9999C15 44.4666 13.8093 29.5066 13.6827 27.9239C13.6725 27.7935 13.6672 27.6628 13.6667 27.5319C13.6667 25.4413 14.9667 23.8119 16.3267 22.8373C17.361 22.0974 18.2037 21.1212 18.7846 19.9899C19.3656 18.8586 19.668 17.605 19.6667 16.3333C19.6667 12.8119 18.9 7.52927 18.4067 4.5066C18.3655 4.26933 18.2412 4.05448 18.056 3.90056C17.8708 3.74663 17.6368 3.66369 17.396 3.6666C17.1142 3.6666 16.8439 3.77856 16.6446 3.97785C16.4453 4.17714 16.3333 4.44743 16.3333 4.72927V17.3333ZM39.6667 3.70927V25.3333C39.6667 26.1199 39.9173 29.7733 40.1933 33.7799L40.212 34.0519C40.5853 39.4733 41 45.5213 41 46.9999C41 47.884 40.6488 48.7318 40.0237 49.357C39.3986 49.9821 38.5507 50.3333 37.6667 50.3333C36.7826 50.3333 35.9348 49.9821 35.3097 49.357C34.6845 48.7318 34.3333 47.884 34.3333 46.9999C34.3333 45.6906 34.66 40.3519 34.996 35.2399C35.1931 32.2484 35.3962 29.2573 35.6053 26.2666L35.6627 25.4506C35.6788 25.2224 35.6477 24.9933 35.5715 24.7777C35.4952 24.562 35.3754 24.3643 35.2194 24.197C35.0634 24.0296 34.8747 23.8961 34.6649 23.8049C34.4551 23.7137 34.2288 23.6666 34 23.6666H30C29.7348 23.6666 29.4804 23.5612 29.2929 23.3737C29.1054 23.1862 29 22.9318 29 22.6666V15.3333C28.9999 12.4121 30.0957 9.59727 32.0707 7.44499C34.0457 5.29272 36.7563 3.95965 39.6667 3.70927ZM32.2133 26.9999L32.1293 28.2159C32.004 30.0319 31.836 32.4826 31.6707 35.0213C31.34 40.0533 31 45.5479 31 46.9999C31 48.768 31.7024 50.4637 32.9526 51.714C34.2029 52.9642 35.8986 53.6666 37.6667 53.6666C39.4348 53.6666 41.1305 52.9642 42.3807 51.714C43.631 50.4637 44.3333 48.768 44.3333 46.9999C44.3333 45.3879 43.9133 39.2746 43.5493 33.9973L43.5373 33.8239C43.2467 29.5946 43 25.9866 43 25.3333V1.99994C43 1.07994 42.2533 0.333269 41.3333 0.333269H40.6667C32.3827 0.333269 25.6667 7.04927 25.6667 15.3333V22.6666C25.6667 23.8159 26.1232 24.9181 26.9359 25.7307C27.7485 26.5434 28.8507 26.9999 30 26.9999H32.2133Z" fill="#C4A484"/>
</svg>
