<svg width="64" height="57" viewBox="0 0 64 57" fill="none" xmlns="http://www.w3.org/2000/svg">
<path d="M34 22.3929C35.688 22.3929 37.36 22.4091 39.072 23.0361C40.724 23.6387 42.552 24.8724 44.336 27.5961C44.4818 27.8186 44.6691 28.0096 44.8874 28.1583C45.1057 28.307 45.3507 28.4105 45.6083 28.4629C45.8659 28.5152 46.1311 28.5154 46.3887 28.4635C46.6464 28.4115 46.8915 28.3084 47.11 28.16C47.3285 28.0117 47.5162 27.8209 47.6623 27.5987C47.8084 27.3766 47.9101 27.1272 47.9615 26.8651C48.013 26.6029 48.0132 26.3329 47.9621 26.0707C47.9111 25.8084 47.8098 25.5589 47.664 25.3365C45.444 21.9491 42.944 20.1251 40.424 19.2049C38.02 18.3214 35.72 18.3214 34.08 18.3214H34C33.4696 18.3214 32.9609 18.5359 32.5858 18.9177C32.2107 19.2994 32 19.8172 32 20.3571C32 20.897 32.2107 21.4148 32.5858 21.7966C32.9609 22.1784 33.4696 22.3929 34 22.3929ZM24 8.14286V11.3593C12.436 14.8607 4 25.7681 4 38.6786C4 39.2185 4.21071 39.7363 4.58579 40.118C4.96086 40.4998 5.46957 40.7143 6 40.7143H58C58.5304 40.7143 59.0391 40.4998 59.4142 40.118C59.7893 39.7363 60 39.2185 60 38.6786C60.0015 32.5398 58.0557 26.5646 54.4521 21.6422C50.8485 16.7198 45.7797 13.1132 40 11.3593V8.14286C40 5.98324 39.1571 3.91207 37.6569 2.38499C36.1566 0.857905 34.1217 0 32 0C29.8783 0 27.8434 0.857905 26.3431 2.38499C24.8429 3.91207 24 5.98324 24 8.14286ZM32 4.07143C33.0609 4.07143 34.0783 4.50038 34.8284 5.26392C35.5786 6.02746 36 7.06305 36 8.14286V10.4636C33.3471 10.0738 30.6529 10.0738 28 10.4636V8.14286C28 7.06305 28.4214 6.02746 29.1716 5.26392C29.9217 4.50038 30.9391 4.07143 32 4.07143ZM32 14.25C38.0196 14.2491 43.8197 16.5507 48.2503 20.6984C52.6809 24.8462 55.4184 30.5371 55.92 36.6429H8.08C8.58163 30.5371 11.3191 24.8462 15.7497 20.6984C20.1803 16.5507 25.9804 14.2491 32 14.25ZM6 44.7857C4.4087 44.7857 2.88258 45.4291 1.75736 46.5745C0.632141 47.7198 0 49.2731 0 50.8929C0 52.5126 0.632141 54.0659 1.75736 55.2113C2.88258 56.3566 4.4087 57 6 57H58C59.5913 57 61.1174 56.3566 62.2426 55.2113C63.3679 54.0659 64 52.5126 64 50.8929C64 49.2731 63.3679 47.7198 62.2426 46.5745C61.1174 45.4291 59.5913 44.7857 58 44.7857H6ZM4 50.8929C4 50.353 4.21071 49.8352 4.58579 49.4534C4.96086 49.0716 5.46957 48.8571 6 48.8571H58C58.5304 48.8571 59.0391 49.0716 59.4142 49.4534C59.7893 49.8352 60 50.353 60 50.8929C60 51.4328 59.7893 51.9506 59.4142 52.3323C59.0391 52.7141 58.5304 52.9286 58 52.9286H6C5.46957 52.9286 4.96086 52.7141 4.58579 52.3323C4.21071 51.9506 4 51.4328 4 50.8929Z" fill="#C4A484"/>
</svg>
