<svg width="122" height="122" viewBox="0 0 122 122" fill="none" xmlns="http://www.w3.org/2000/svg">
<path d="M121 19V1L85.6602 36.34" stroke="#F6F3EF" stroke-width="2" stroke-linecap="round" stroke-linejoin="round"/>
<path d="M88.6 102.34C98.5411 102.34 106.6 94.281 106.6 84.3398C106.6 74.3987 98.5411 66.3398 88.6 66.3398C78.6588 66.3398 70.6 74.3987 70.6 84.3398C70.6 94.281 78.6588 102.34 88.6 102.34Z" stroke="#F6F3EF" stroke-width="2" stroke-linecap="round" stroke-linejoin="round"/>
<path d="M37.66 51.3999C47.6012 51.3999 55.66 43.341 55.66 33.3999C55.66 23.4588 47.6012 15.3999 37.66 15.3999C27.7189 15.3999 19.66 23.4588 19.66 33.3999C19.66 43.341 27.7189 51.3999 37.66 51.3999Z" stroke="#F6F3EF" stroke-width="2" stroke-linecap="round" stroke-linejoin="round"/>
<path d="M63.0999 76.9C73.041 76.9 81.0999 68.8412 81.0999 58.9C81.0999 48.9589 73.041 40.9 63.0999 40.9C53.1587 40.9 45.0999 48.9589 45.0999 58.9C45.0999 68.8412 53.1587 76.9 63.0999 76.9Z" stroke="#F6F3EF" stroke-width="2" stroke-linecap="round" stroke-linejoin="round"/>
<path d="M72.46 42.1C82.4011 42.1 90.46 34.0411 90.46 24.1C90.46 14.1588 82.4011 6.09998 72.46 6.09998C62.5188 6.09998 54.46 14.1588 54.46 24.1C54.46 34.0411 62.5188 42.1 72.46 42.1Z" stroke="#F6F3EF" stroke-width="2" stroke-linecap="round" stroke-linejoin="round"/>
<path d="M97.9 67.5399C107.841 67.5399 115.9 59.481 115.9 49.5399C115.9 39.5988 107.841 31.5399 97.9 31.5399C87.9589 31.5399 79.9 39.5988 79.9 49.5399C79.9 59.481 87.9589 67.5399 97.9 67.5399Z" stroke="#F6F3EF" stroke-width="2" stroke-linecap="round" stroke-linejoin="round"/>
<path d="M28.3601 86.2001C38.3012 86.2001 46.3601 78.1412 46.3601 68.2001C46.3601 58.2589 38.3012 50.2001 28.3601 50.2001C18.419 50.2001 10.3601 58.2589 10.3601 68.2001C10.3601 78.1412 18.419 86.2001 28.3601 86.2001Z" stroke="#F6F3EF" stroke-width="2" stroke-linecap="round" stroke-linejoin="round"/>
<path d="M53.7999 111.64C63.7411 111.64 71.7999 103.581 71.7999 93.6399C71.7999 83.6988 63.7411 75.6399 53.7999 75.6399C43.8588 75.6399 35.7999 83.6988 35.7999 93.6399C35.7999 103.581 43.8588 111.64 53.7999 111.64Z" stroke="#F6F3EF" stroke-width="2" stroke-linecap="round" stroke-linejoin="round"/>
<path d="M19 121C28.9411 121 37 112.941 37 103C37 93.0589 28.9411 85 19 85C9.05887 85 1 93.0589 1 103C1 112.941 9.05887 121 19 121Z" stroke="#F6F3EF" stroke-width="2" stroke-linecap="round" stroke-linejoin="round"/>
</svg>
