<svg width="74" height="79" viewBox="0 0 74 79" fill="none" xmlns="http://www.w3.org/2000/svg">
<path d="M37.0007 43.2505L48.6676 50.7504M37.0007 43.2505C19.5781 53.5478 9.31903 49.9254 2 46.4379C2 54.2378 4.64839 60.7627 8.59568 65.7502M37.0007 43.2505L48.6676 26.0532M48.6676 50.7504C47.8159 58.389 42.5502 73.9438 29.8294 77C22.771 77 14.3202 72.9876 8.59568 65.7502M48.6676 50.7504L58.7711 32.0006M8.59568 65.7502C12.6324 66.3764 22.5337 66.5001 29.8294 62.0002M48.6676 26.0532L63.4768 4.22475C64.0542 3.24646 64.9984 2.51861 66.1151 2.19081C67.2319 1.86301 68.4365 1.96015 69.4813 2.46228C70.0161 2.7182 70.4932 3.07343 70.8853 3.50759C71.2773 3.94174 71.5766 4.44628 71.7659 4.99224C71.9553 5.5382 72.0309 6.11485 71.9886 6.68907C71.9462 7.2633 71.7867 7.82381 71.5191 8.33845L58.7711 32.0006M48.6676 26.0532L58.7711 32.0006M13.6669 9.50093L14.5264 11.7396C15.6542 14.6796 16.2181 16.1496 17.3264 17.2183C18.4387 18.2908 19.9631 18.8346 23.0121 19.9183L25.3338 20.7508L23.0121 21.5795C19.9631 22.667 18.4387 23.2107 17.3303 24.2795C16.2181 25.352 15.6542 26.8219 14.5302 29.7619L13.6669 32.0006L12.8074 29.7619C11.6796 26.8219 11.1157 25.352 10.0074 24.2832C8.89513 23.2107 7.37066 22.667 4.32171 21.5833L2 20.7508L4.32171 19.922C7.37066 18.8346 8.89513 18.2908 10.0035 17.2221C11.1157 16.1496 11.6796 14.6796 12.8035 11.7396L13.6669 9.50093Z" stroke="#8E3B46" stroke-width="3" stroke-linecap="round" stroke-linejoin="round"/>
</svg>
