<svg width="80" height="80" viewBox="0 0 80 80" fill="none" xmlns="http://www.w3.org/2000/svg">
<path d="M40.0007 43.2505L51.6676 50.7504M40.0007 43.2505C22.5781 53.5478 12.319 49.9254 5 46.4379C5 54.2378 7.64839 60.7627 11.5957 65.7502M40.0007 43.2505L51.6676 26.0532M51.6676 50.7504C50.8159 58.389 45.5502 73.9438 32.8294 77C25.771 77 17.3202 72.9876 11.5957 65.7502M51.6676 50.7504L61.7711 32.0006M11.5957 65.7502C15.6324 66.3764 25.5337 66.5001 32.8294 62.0002M51.6676 26.0532L66.4768 4.22475C67.0542 3.24646 67.9984 2.51861 69.1151 2.19081C70.2319 1.86301 71.4365 1.96015 72.4813 2.46228C73.0161 2.7182 73.4932 3.07343 73.8853 3.50759C74.2773 3.94174 74.5766 4.44628 74.7659 4.99224C74.9553 5.5382 75.0309 6.11485 74.9886 6.68907C74.9462 7.2633 74.7867 7.82381 74.5191 8.33845L61.7711 32.0006M51.6676 26.0532L61.7711 32.0006M16.6669 9.50093L17.5264 11.7396C18.6542 14.6796 19.2181 16.1496 20.3264 17.2183C21.4387 18.2908 22.9631 18.8346 26.0121 19.9183L28.3338 20.7508L26.0121 21.5795C22.9631 22.667 21.4387 23.2107 20.3303 24.2795C19.2181 25.352 18.6542 26.8219 17.5302 29.7619L16.6669 32.0006L15.8074 29.7619C14.6796 26.8219 14.1157 25.352 13.0074 24.2832C11.8951 23.2107 10.3707 22.667 7.32171 21.5833L5 20.7508L7.32171 19.922C10.3707 18.8346 11.8951 18.2908 13.0035 17.2221C14.1157 16.1496 14.6796 14.6796 15.8035 11.7396L16.6669 9.50093Z" stroke="#8E3B46" stroke-width="3" stroke-linecap="round" stroke-linejoin="round"/>
</svg>
