<svg width="80" height="80" viewBox="0 0 80 80" fill="none" xmlns="http://www.w3.org/2000/svg">
<g clip-path="url(#clip0_188_122)">
<path d="M80 39.9999V39.9799C80 28.1432 74.8467 17.5132 66.6634 10.2032L66.6233 10.1699C66.5222 10.061 66.4093 9.96377 66.2867 9.87991L66.28 9.87658C59.0115 3.49581 49.6652 -0.0146857 39.9933 0.00324216C29.8867 0.00324216 20.66 3.75658 13.6267 9.94991L13.67 9.91324C13.5855 9.97785 13.5074 10.0504 13.4367 10.1299C9.2086 13.874 5.82427 18.477 3.50783 23.6277C1.19139 28.7783 -0.00427795 34.3624 1.15005e-05 40.0099C1.15005e-05 51.8432 5.14668 62.4732 13.3233 69.7866L13.3633 69.8199C13.4697 69.9395 13.5881 70.0479 13.7167 70.1432L13.7233 70.1466C20.9895 76.5187 30.329 80.0241 39.9933 80.0066C49.7029 80.0215 59.0824 76.4836 66.3633 70.0599L66.32 70.0966C70.6215 66.3568 74.0696 61.7366 76.4309 56.5488C78.7922 51.361 80.0116 45.7265 80.0067 40.0266V40.0032L80 39.9999ZM65.1267 66.0166C63.1444 64.4148 61.0136 63.0062 58.7633 61.8099L58.5467 61.7032C60.59 55.8132 61.82 49.0232 61.9367 41.9599V41.9066H76.14C75.6624 51.0449 71.729 59.66 65.1367 66.0066L65.1267 66.0166ZM41.9067 60.9999C46.1833 61.2299 50.18 62.1699 53.8667 63.6999L53.6267 63.6132C50.6733 70.3466 46.5167 74.9732 41.9067 75.9899V60.9999ZM41.9067 57.1866V41.9066H58.1334C58.0042 48.2341 56.9071 54.5045 54.88 60.4999L55.01 60.0632C50.8723 58.3599 46.4703 57.3877 42 57.1899L41.91 57.1866H41.9067ZM41.9067 38.0932V22.8132C46.4973 22.6044 51.0168 21.5995 55.2634 19.8432L55 19.9399C56.85 25.3366 57.9867 31.5566 58.1334 38.0232V38.0932H41.9067ZM41.9067 18.9999V4.01658C46.5167 5.03324 50.6733 9.63991 53.6267 16.3932C50.18 17.8266 46.1833 18.7632 42.0033 18.9966L41.9067 18.9999ZM51.42 5.66658C55.3489 6.97418 59.0228 8.94982 62.28 11.5066L62.2033 11.4466C60.7267 12.6066 59.07 13.6999 57.3233 14.6499L57.1367 14.7432C55.7289 11.4104 53.788 8.329 51.39 5.61991L51.42 5.65658V5.66658ZM38.0867 4.02658V18.9999C33.975 18.7904 29.9296 17.8772 26.1267 16.2999L26.3667 16.3866C29.3333 9.65324 33.4833 5.02991 38.0933 4.01324L38.0867 4.02658ZM22.86 14.7332C21.0536 13.7603 19.332 12.6375 17.7133 11.3766L17.7933 11.4366C20.9556 8.95473 24.5146 7.02533 28.32 5.72991L28.5733 5.65324C26.2405 8.29068 24.3403 11.2811 22.9433 14.5132L22.86 14.7332ZM38.0933 22.8099V38.0899H21.8667C22.0133 31.5532 23.15 25.3332 25.13 19.4999L25 19.9366C29.1379 21.6316 33.5364 22.6024 38.0033 22.8066L38.0933 22.8099ZM38.0933 41.9032V57.1832C33.5027 57.3921 28.9833 58.397 24.7367 60.1532L25 60.0566C23.15 54.6632 22.0133 48.4399 21.8667 41.9732V41.9032H38.0933ZM38.0933 60.9966V75.9799C33.4833 74.9632 29.3267 70.3566 26.3733 63.6032C29.82 62.1699 33.8167 61.2366 37.9967 61.0032L38.0933 60.9966ZM28.5933 74.3299C24.668 73.0203 20.9951 71.0497 17.7333 68.5032L17.8133 68.5632C19.29 67.4032 20.9467 66.3099 22.6933 65.3599L22.88 65.2666C24.2773 68.6001 26.2181 71.6786 28.6233 74.3766L28.5933 74.3432V74.3299ZM57.14 65.2632C59.0733 66.3132 60.73 67.4032 62.2867 68.6199L62.2067 68.5599C59.0445 71.0417 55.4854 72.9712 51.68 74.2666L51.4267 74.3432C53.7592 71.7068 55.6594 68.7176 57.0567 65.4866L57.14 65.2699V65.2632ZM76.14 38.0932H61.9367C61.8324 31.1966 60.6423 24.3594 58.41 17.8332L58.5467 18.2932C60.9012 17.0531 63.1304 15.5886 65.2034 13.9199L65.1234 13.9799C71.7045 20.3008 75.6397 28.885 76.1333 37.9966L76.14 38.0932ZM14.8733 13.9832C16.7933 15.5432 18.95 16.9732 21.2367 18.1899L21.4533 18.2966C19.41 24.1866 18.18 30.9766 18.0633 38.0399V38.0932H3.85668C4.33433 28.9549 8.26773 20.3398 14.86 13.9932L14.8733 13.9832ZM3.86001 41.9066H18.0633C18.1676 48.8032 19.3577 55.6404 21.59 62.1666L21.4533 61.7066C18.95 63.0366 16.7967 64.4666 14.7967 66.0799L14.8767 66.0199C8.29554 59.699 4.36028 51.1148 3.86668 42.0032L3.86335 41.9099L3.86001 41.9066Z" fill="#8E3B46"/>
</g>
<defs>
<clipPath id="clip0_188_122">
<rect width="80" height="80" fill="white"/>
</clipPath>
</defs>
</svg>
